PathFileType	4	(X/Y/Z)	..\data\sprint.trc
DataRate	CameraRate	NumFrames	NumMarkers	Units	OrigDataRate	OrigDataStartFrame	OrigNumFrames
250.000000	250.000000	4	51	mm	250.000000	40	324
Frame#	Time	C7			RSH			LSH			MAN			T7			LARM			LELB			LFOREARM			LWR			RARM			RELB			RFOREARM			RWR			RASI			LASI			SACR			P1			P2			P3			LTHLP			LTHLD			LTHAP			LTHAD			LLEPI			LPAT			LTIAP			LTIAD			LTILAT			LLMAL			LHEEL			LMFS			LMFL			LP1MT			LTOE			LP5MT			RTHLP			RTHLD			RTHAP			RTHAD			RLEPI			RPAT			RTIAP			RTIAD			RTILAT			RLMAL			RHEEL			RMFS			RMFL			RP1MT			RTOE			RP5MT			
		X1	Y1	Z1	X2	Y2	Z2	X3	Y3	Z3	X4	Y4	Z4	X5	Y5	Z5	X6	Y6	Z6	X7	Y7	Z7	X8	Y8	Z8	X9	Y9	Z9	X10	Y10	Z10	X11	Y11	Z11	X12	Y12	Z12	X13	Y13	Z13	X14	Y14	Z14	X15	Y15	Z15	X16	Y16	Z16	X17	Y17	Z17	X18	Y18	Z18	X19	Y19	Z19	X20	Y20	Z20	X21	Y21	Z21	X22	Y22	Z22	X23	Y23	Z23	X24	Y24	Z24	X25	Y25	Z25	X26	Y26	Z26	X27	Y27	Z27	X28	Y28	Z28	X29	Y29	Z29	X30	Y30	Z30	X31	Y31	Z31	X32	Y32	Z32	X33	Y33	Z33	X34	Y34	Z34	X35	Y35	Z35	X36	Y36	Z36	X37	Y37	Z37	X38	Y38	Z38	X39	Y39	Z39	X40	Y40	Z40	X41	Y41	Z41	X42	Y42	Z42	X43	Y43	Z43	X44	Y44	Z44	X45	Y45	Z45	X46	Y46	Z46	X47	Y47	Z47	X48	Y48	Z48	X49	Y49	Z49	X50	Y50	Z50	X51	Y51	Z51	

41	0.16	-4465.977050781252	1492.541015625	146.2171020507813	-4409.520507812502	1461.298461914063	327.7910156250001	-4414.801269531252	1451.939575195313	-25.21117591857912	-4340.286132812502	1371.178588867188	155.2182312011719	-4574.170898437502	1322.185180664063	169.5287322998047	-4444.596679687502	1244.589233398438	-116.7579727172852	-4491.122070312502	1112.9365234375	-158.6831512451172	-4387.423339843752	1021.581420898438	-119.5248336791993	-4306.878417968752	926.3908081054692	-87.31970977783206	-4477.718261718752	1279.481201171875	415.3787841796877	-4542.311035156252	1154.683349609375	460.1520690917971	-4486.006347656252	1016.770080566407	469.930358886719	-4456.435058593752	889.560180664063	476.2604064941409	-4413.574218750002	1008.335754394532	260.6944580078126	-4458.558593750002	1022.825744628907	52.74218368530276	-4610.654785156252	1076.189208984375	201.2231292724611	-4636.329101562502	1054.802856445313	149.5560150146485	-4617.299804687502	1043.348754882813	253.8646697998048	-4660.829589843752	996.5123901367192	201.2699737548829	-4495.974121093752	738.4483642578127	-9.558625221252445	-4444.953125000002	636.9905395507815	1.643567442893983	-4362.102050781252	775.3471069335942	36.16046524047853	-4334.126953125002	670.1247558593752	51.32254791259768	-4405.967285156252	525.3543090820315	27.12971687316896	-4312.086425781252	539.6755371093752	80.98162841796878	-4436.581054687502	364.4724731445314	126.1075286865235	-4513.813476562502	250.1174774169923	152.3597869873047	-4518.713378906252	319.2740783691407	69.2978439331055	-4624.990234375002	134.757308959961	127.6989517211915	-4691.365234375002	121.9861526489258	185.8731079101563	-4522.900878906252	116.3760986328126	168.4466094970704	-4568.548828125002	91.16553497314456	111.6520996093751	-4468.988769531252	67.65338897705081	191.9261932373047	-4430.528808593752	72.02282714843753	150.6142883300782	-4515.815917968752	56.61645126342776	72.5362243652344	-4444.915527343752	747.0059204101565	379.4153442382814	-4393.470214843752	644.6170654296877	381.6971435546876	-4325.942382812502	742.2073364257815	289.4436035156251	-4296.053222656252	652.2324218750002	290.0062866210939	-4371.104980468752	524.4495239257815	343.9656066894532	-4303.282226562502	474.0182800292971	286.608856201172	-4527.704101562502	593.0241699218752	235.4869995117189	-4624.670898437502	672.855651855469	214.7243957519532	-4535.601562500002	626.777526855469	322.7048339843751	-4709.034179687502	769.3911132812505	261.2217407226564	-4682.406738281252	837.9704589843755	208.3079223632814	-4789.708984375002	699.6898193359377	215.5747680664064	-4783.760742187502	754.763366699219	266.9891052246095	-4870.174316406252	692.8675537109377	177.0697326660157	-4872.051757812502	665.8145141601565	221.8344573974611	-4868.166992187502	735.9807739257815	293.3271789550782	
42	0.164	-4429.416503906252	1491.962646484375	147.1812438964844	-4372.282714843752	1459.48974609375	328.5832824707032	-4379.371582031252	1452.154663085938	-24.59779548645021	-4302.562988281252	1371.381469726563	155.8018646240235	-4537.031738281252	1322.803588867188	169.573959350586	-4398.543457031252	1243.420166015625	-114.3629379272462	-4432.768554687502	1107.05615234375	-154.5818328857422	-4324.307617187502	1024.961059570313	-113.9287109375001	-4237.331054687502	936.9860229492192	-79.75765228271487	-4447.074218750002	1280.925415039063	416.9536437988284	-4518.001464843752	1159.005493164063	461.8115234375002	-4469.766113281252	1017.950927734375	473.4312744140627	-4449.957519531252	888.6235351562505	481.653991699219	-4376.533691406252	1008.055358886719	259.0793762207032	-4423.165527343752	1022.855346679688	50.54870986938479	-4573.450683593752	1075.351440429688	202.8593292236329	-4599.457031250002	1054.654296875	151.3027954101563	-4580.538574218752	1042.32958984375	255.3842773437501	-4623.993164062502	995.9544067382817	202.5081176757814	-4468.258789062502	737.2007446289065	-9.488682746887211	-4423.726562500002	632.7781982421877	2.159141778945924	-4334.332031250002	771.0186157226567	38.42102050781251	-4309.284179687502	664.8733520507815	51.91168212890628	-4386.280761718752	520.1160888671877	26.88012695312501	-4293.218750000002	534.3704833984377	81.08625030517581	-4426.574218750002	361.2383728027345	127.409278869629	-4508.842285156252	249.9894866943361	152.5179748535157	-4506.760742187502	316.8645324707032	68.22853088378909	-4623.019531250002	138.0794525146485	125.3229751586915	-4690.448242187502	128.0710601806641	182.5092163085938	-4522.176757812502	116.8211059570313	167.6311187744141	-4567.333984375002	92.72669219970706	110.2036819458008	-4469.239746093752	67.73828125000003	191.3523559570313	-4431.123046875002	71.75139617919925	150.7572021484376	-4515.808105468752	56.40279006958011	72.09000396728518	-4392.789062500002	752.7360839843752	379.0612792968751	-4337.565917968752	653.208190917969	380.5901489257814	-4277.020507812502	753.7746582031252	287.3492736816407	-4242.104492187502	664.9556884765627	288.6526489257814	-4309.445312500002	534.1546020507815	342.3388061523439	-4238.782226562502	488.0907897949221	284.6981811523439	-4470.497558593752	594.3269042968752	234.5977935791017	-4570.432617187502	668.2266235351565	214.6812438964845	-4478.896484375002	627.6163330078127	321.8595581054689	-4662.767089843752	760.2527465820315	261.5777282714845	-4639.770996093752	830.0501098632817	208.0307617187501	-4737.196777343752	684.3201904296877	215.5005645751954	-4735.811035156252	740.5989990234377	266.9952697753907	-4816.828125000002	672.1389770507815	176.6255187988282	-4816.479980468752	645.497009277344	221.8300170898439	-4818.885253906252	716.260192871094	292.3732910156251	
43	0.168	-4392.426757812502	1491.710083007813	148.1711425781251	-4334.670410156252	1458.06787109375	329.3488159179689	-4343.466308593752	1452.941772460938	-23.70867729187012	-4264.944335937502	1371.35009765625	156.2794342041016	-4499.162597656252	1322.81103515625	169.8811950683594	-4353.791503906252	1243.326904296875	-111.9631271362305	-4376.349121093752	1104.582397460938	-149.9688873291016	-4262.432128906252	1031.0546875	-107.6783752441407	-4169.171875000002	950.3544921875005	-71.94026947021487	-4416.718750000002	1283.959106445313	418.4456481933596	-4492.785156250002	1165.130981445313	463.6099548339846	-4453.430175781252	1021.039794921875	476.920593261719	-4442.763183593752	890.4835815429692	486.2864074707034	-4339.078125000002	1008.45947265625	257.6452636718751	-4387.089843750002	1022.579406738282	48.80714416503909	-4535.701171875002	1074.696655273438	204.4622955322267	-4562.232910156252	1054.547973632813	153.0593261718751	-4543.639160156252	1041.582275390625	257.0454406738282	-4586.606933593752	995.3957519531255	203.7596435546876	-4442.410156250002	734.2784423828127	-8.257741928100589	-4403.261230468752	627.6448974609377	3.444173574447634	-4307.057617187502	766.5081176757815	40.45974731445314	-4286.151855468752	657.2908935546877	50.36419296264651	-4367.471679687502	513.2827148437502	26.45549964904787	-4275.157226562502	527.572937011719	79.95649719238284	-4416.653808593752	357.2823181152345	127.8773040771485	-4503.031738281252	249.0204010009767	151.6493072509766	-4495.781738281252	314.6052551269532	66.91103363037112	-4619.916503906252	141.469711303711	122.7424545288087	-4689.012207031252	134.3398437500001	178.7132263183594	-4521.164550781252	117.7274322509766	165.8553314208985	-4566.229980468752	93.814079284668	108.2817459106446	-4469.455078125002	67.87443542480472	190.9020538330079	-4432.041015625002	71.56890869140628	151.0826568603516	-4516.339355468752	56.14577484130862	71.91978454589847	-4343.378417968752	759.4667968750002	377.6016845703126	-4282.290527343752	663.0390625000002	379.0845336914064	-4228.728027343752	766.3552246093752	285.3990173339845	-4188.254394531252	680.1719970703127	287.1665344238282	-4248.452636718752	545.218688964844	340.2373046875001	-4176.176757812502	502.8874816894534	282.0349731445314	-4416.200683593752	596.1780395507815	233.7315368652345	-4516.989257812502	663.784362792969	214.0769042968751	-4422.986328125002	628.642028808594	320.4530639648439	-4616.064453125002	749.280700683594	261.4710083007814	-4598.472167968752	820.6416625976567	208.1241912841798	-4684.832519531252	667.5918579101565	215.1035766601564	-4688.128906250002	724.3708496093752	266.7278442382814	-4763.629394531252	650.0515136718752	175.8585968017579	-4760.164062500002	624.0592041015627	220.8687438964845	-4769.037597656252	693.5969848632815	291.5713500976564	
44	0.172	-4355.484863281252	1491.650512695313	149.0955200195313	-4297.016113281252	1457.037719726563	330.1086730957032	-4307.486328125002	1454.342041015625	-22.79244804382325	-4227.333496093752	1371.4423828125	156.9376068115235	-4461.011230468752	1322.19384765625	170.4346618652344	-4309.165527343752	1244.442626953125	-110.1648178100587	-4320.751953125002	1103.957397460938	-144.8843383789063	-4201.339355468752	1041.13525390625	-100.4284133911133	-4102.495117187502	967.329956054688	-63.64349746704104	-4386.307128906252	1287.962890625	419.937194824219	-4467.270507812502	1172.491943359375	465.5843505859377	-4436.757324218752	1026.085693359375	479.7889099121096	-4434.607421875002	894.9806518554692	489.998474121094	-4300.795898437502	1009.755432128907	253.9546203613282	-4348.960449218752	1022.358825683594	48.42304229736331	-4497.689941406252	1074.278930664063	206.0106048583986	-4524.291015625002	1054.550415039063	154.575912475586	-4505.531250000002	1041.125610351563	258.4373779296876	-4549.068359375002	995.166870117188	205.2501068115236	-4416.990722656252	730.9246826171877	-6.863833427429203	-4382.214355468752	622.828063964844	4.385245323181154	-4278.682617187502	760.9531860351565	41.65856170654298	-4263.624511718752	647.7670898437502	47.75513839721681	-4349.681152343752	506.0195617675784	25.70454216003419	-4257.835937500002	519.1054687500002	78.01255035400393	-4406.437500000002	352.950164794922	126.8113098144532	-4497.451660156252	248.3105316162111	150.0341033935547	-4486.550292968752	313.348358154297	65.12689208984378	-4616.391113281252	144.5705871582032	120.3716049194337	-4687.288085937502	141.2046356201172	175.4434204101563	-4520.120605468752	118.6681747436524	164.1291198730469	-4565.343261718752	95.51269531250003	106.5497131347657	-4469.645507812502	67.88003540039065	190.5343780517579	-4432.949707031252	71.27433776855472	151.1439208984376	-4516.195800781252	55.82521820068362	71.96987915039065	-4293.026367187502	766.940856933594	376.604949951172	-4228.006347656252	674.051696777344	377.0958557128907	-4181.077148437502	779.9049682617192	283.5505676269532	-4135.702636718752	695.8773193359377	285.3689270019532	-4187.937500000002	557.4282226562502	337.8926086425782	-4113.244628906252	519.9583129882815	279.2031250000001	-4358.477539062502	596.4954833984377	232.3686370849611	-4464.264648437502	659.5341796875002	213.2097625732423	-4367.794921875002	629.859802246094	318.7837829589845	-4570.101074218752	736.7105712890627	261.7121582031251	-4558.262695312502	809.7676391601567	208.6032257080079	-4629.950683593752	648.2994384765627	214.7665405273439	-4640.258789062502	706.2905273437502	266.5880126953126	-4707.914062500002	625.4000244140627	175.1515655517579	-4703.085937500002	600.477478027344	220.1439056396486	-4717.408691406252	668.1499023437502	290.717010498047	
